PathFileType	4	(X/Y/Z)	D:\luciana\demolition.trc
DataRate	CameraRate	NumFrames	NumMarkers	Units	OrigDataRate	OrigDataStartFrame	OrigNumFrames
250.00	250.00	12	18	mm	250.00	449	1806
Frame#	Time	pelvisR			Trunk1			Trunk2			Trunk3			C7			shoulder			upperArm1			upperArm2			upperArm3			elbow			forearm1			forearm2			forearm3			wrist1			wrist2			wrist3			Object			Hand			
		X1	Y1	Z1	X2	Y2	Z2	X3	Y3	Z3	X4	Y4	Z4	X5	Y5	Z5	X6	Y6	Z6	X7	Y7	Z7	X8	Y8	Z8	X9	Y9	Z9	X10	Y10	Z10	X11	Y11	Z11	X12	Y12	Z12	X13	Y13	Z13	X14	Y14	Z14	X15	Y15	Z15	X16	Y16	Z16	X17	Y17	Z17	X18	Y18	Z18	

448	1.792000	1705.593467	656.773806	695.416927	1484.600544	872.690797	607.049108	1548.217654	821.637273	607.178330	1455.781221	780.249894	611.183226	1541.891336	1136.413336	784.801245	1721.515179	1062.448263	754.534125	1814.610720	914.191902	743.857682	1843.768597	909.061134	820.509911	1780.926466	889.602602	859.687209	1838.655710	777.906418	822.276175	1911.674023	722.343206	824.538827	1862.193584	689.322174	768.844247	1914.575100	795.722723	805.594563	2029.968262	713.250160	742.095590	1991.503835	687.937915	676.382482	2019.528627	786.660433	743.864596	2108.158588	759.857059	642.240047	2095.563173	712.132514	650.393248	
449	1.796000	1705.584049	656.769216	695.424199	1484.659672	872.801363	607.023537	1548.211455	821.653366	607.188642	1455.752492	780.265749	611.187637	1541.695714	1136.435270	784.820676	1721.455932	1062.476635	754.581869	1814.602613	914.240301	743.911207	1843.750596	909.108222	820.574999	1780.902267	889.639795	859.740853	1838.674068	777.962089	822.327971	1911.670566	722.383380	824.579060	1862.204552	689.368844	768.873811	1914.574742	795.764565	805.643499	2029.989958	713.303804	742.175341	1991.565943	688.014269	676.483572	2019.542217	786.707520	743.937969	2108.203650	759.905696	642.336667	2095.598459	712.159336	650.459588	
450	1.800000	1705.580354	656.779766	695.433080	1484.673023	872.845829	607.026637	1548.192620	821.678400	607.205153	1455.724716	780.280411	611.217678	1541.487336	1136.452317	784.833848	1721.414804	1062.500954	754.648328	1814.590096	914.295793	743.965566	1843.730450	909.152925	820.625603	1780.879021	889.672041	859.790325	1838.684797	778.020442	822.381020	1911.722302	722.456396	824.656963	1862.222195	689.413190	768.903852	1914.592624	795.817256	805.706322	2030.017853	713.357270	742.246449	1991.616964	688.089490	676.583290	2019.560337	786.758244	744.008124	2108.245850	759.955764	642.433643	2095.623493	712.228179	650.535941	
451	1.804000	1705.574632	656.800449	695.435464	1484.614611	872.817457	607.058048	1548.180223	821.696281	607.212663	1456.610918	780.490637	610.379875	1541.300535	1136.467695	784.839869	1721.371889	1062.529564	754.701972	1814.565301	914.342582	744.012117	1843.674183	909.210503	820.772886	1780.861378	889.700532	859.838128	1838.672876	778.066754	822.415471	1911.732674	722.495496	824.729681	1862.243414	689.462543	768.951774	1914.591789	795.860887	805.745363	2030.041218	713.406563	742.327929	1991.673350	688.165724	676.665962	2019.577980	786.803305	744.085729	2108.283043	760.009468	642.519295	2095.664263	712.297797	650.637150	
452	1.808000	1705.573440	656.809151	695.465803	1484.577298	872.776687	607.085347	1548.159003	821.722388	607.223928	1458.650589	780.944407	608.455181	1541.118860	1136.472702	784.846306	1721.317887	1062.561512	754.751086	1814.547777	914.395690	744.062662	1843.586206	909.278512	821.029127	1780.832648	889.726460	859.904170	1838.685274	778.098345	822.452247	1911.758423	722.558200	824.796081	1862.260222	689.509988	768.985868	1914.591551	795.899391	805.807889	2030.068398	713.462353	742.414594	1991.727948	688.241363	676.735640	2019.593716	786.856294	744.165123	2108.319759	760.066867	642.600536	2095.702171	712.356806	650.739551	
453	1.812000	1705.563903	656.815290	695.496976	1484.595895	872.812629	607.095122	1548.138499	821.753025	607.235849	1459.149599	781.066120	607.976079	1540.958285	1136.476159	784.854889	1721.281528	1062.579393	754.813671	1814.531922	914.444149	744.134307	1843.542814	909.327507	821.144879	1780.796528	889.756203	859.961867	1838.694811	778.133094	822.499037	1911.755323	722.595155	824.846506	1862.275481	689.554453	769.019067	1914.588809	795.930862	805.867970	2030.096054	713.518739	742.499709	1991.767526	688.320637	676.824987	2019.607782	786.911309	744.237542	2108.359098	760.135770	642.691493	2095.736265	712.447047	650.845408	
454	1.816000	1705.556750	656.818509	695.504904	1484.495640	872.768164	607.130051	1548.131704	821.780622	607.254148	1459.281445	781.109095	607.862830	1540.837646	1136.489630	784.855723	1721.250653	1062.603831	754.876971	1814.508796	914.481938	744.199216	1843.502641	909.363866	821.219862	1780.766249	889.781475	860.018730	1838.689923	778.175473	822.545290	1911.749601	722.628534	824.898601	1862.292051	689.595580	769.049168	1914.595127	795.980275	805.924714	2030.126333	713.589072	742.576897	1991.813660	688.371897	676.885724	2019.621849	786.974967	744.325042	2108.400106	760.212898	642.777503	2095.781088	712.525189	650.936425	
455	1.820000	1705.540895	656.815350	695.498228	1484.471202	872.780502	607.153356	1548.130393	821.800888	607.263684	1459.311843	781.130910	607.840419	1540.713310	1136.493564	784.871042	1721.213460	1062.615871	754.942417	1814.490199	914.525867	744.266629	1843.468666	909.401298	821.301043	1780.734777	889.809489	860.077620	1838.683724	778.210282	822.579026	1911.741734	722.658873	824.948788	1862.309098	689.636409	769.088864	1914.595366	796.026766	805.987895	2030.155897	713.666141	742.666721	1991.859913	688.441873	676.962733	2019.636154	787.037551	744.408965	2108.436346	760.293126	642.854571	2095.852852	712.626100	651.068568	
456	1.824000	1705.519676	656.820416	695.500374	1484.439850	872.807384	607.190788	1548.115969	821.818829	607.271433	1459.302187	781.161427	607.835829	1540.570617	1136.499524	784.894705	1721.176863	1062.640190	755.028725	1814.470530	914.578795	744.314790	1843.438625	909.442246	821.380675	1780.703068	889.835358	860.133171	1838.700891	778.256059	822.636366	1911.771536	722.721636	825.005651	1862.325907	689.680338	769.135714	1914.601803	796.082497	806.049168	2030.183077	713.733733	742.768168	1991.895437	688.506365	677.016139	2019.650221	787.098467	744.492769	2108.461618	760.367572	642.928958	2095.875978	712.709725	651.144445	
457	1.828000	1705.517769	656.820416	695.513964	1484.432697	872.830033	607.208669	1548.103929	821.846962	607.273221	1459.309459	781.176448	607.826412	1540.421844	1136.514306	784.905732	1721.130729	1062.670946	755.080700	1814.456463	914.622188	744.367957	1843.406916	909.487605	821.446717	1780.669689	889.851153	860.180914	1838.713646	778.306663	822.693348	1911.799550	722.791016	825.073540	1862.348318	689.728320	769.180655	1914.598465	796.135366	806.096733	2030.211687	713.807881	742.871761	1991.954327	688.585877	677.112341	2019.667149	787.169039	744.582117	2108.489037	760.443449	643.003523	2095.891476	712.779045	651.194453	
458	1.832000	1705.503106	656.829238	695.513606	1484.438419	872.859657	607.229769	1548.098683	821.873248	607.278049	1459.290266	781.190634	607.828200	1540.271044	1136.524081	784.918904	1721.084356	1062.696934	755.132496	1814.423800	914.671183	744.428873	1843.374133	909.533083	821.510375	1780.641079	889.884531	860.225499	1838.713527	778.344154	822.740078	1911.786079	722.847700	825.126171	1862.367034	689.766049	769.224644	1914.592028	796.186030	806.153476	2030.239582	713.890553	742.971957	1992.002010	688.653946	677.182257	2019.680023	787.240267	744.660735	2108.522892	760.527551	643.082023	2095.952749	712.835550	651.296258	
459	1.836000	1705.484509	656.848669	695.531785	1484.424233	872.864962	607.233822	1548.088551	821.893871	607.295275	1459.296465	781.213701	607.829690	1540.114999	1136.541724	784.936726	1721.047282	1062.721491	755.208611	1814.382434	914.704323	744.477570	1843.339682	909.578562	821.569562	1780.614138	889.910698	860.278308	1838.711739	778.388083	822.777748	1911.789060	722.907603	825.201035	1862.393498	689.810812	769.276261	1914.582372	796.240389	806.209028	2030.268431	713.981152	743.071795	1992.060423	688.702941	677.233994	2019.515276	787.369609	744.574726	2108.547926	760.618985	643.157482	2096.018314	712.940753	651.448607	
